name Walk8.mot
datacolumns 19
datarows 10
range 1.45000000 1.49500000
endheader

                time	   L_ground_force_vx	   L_ground_force_vy	   L_ground_force_vz	   L_ground_force_px	   L_ground_force_py	   L_ground_force_pz	   R_ground_force_vx	   R_ground_force_vy	   R_ground_force_vz	   R_ground_force_px	   R_ground_force_py	   R_ground_force_pz	   L_ground_torque_x	   L_ground_torque_y	   L_ground_torque_z	   R_ground_torque_x	   R_ground_torque_y	   R_ground_torque_z	
          1.45000000	         16.37607337	        565.62238599	         38.48883127	         -0.29421136	          0.00000000	         -0.09370827	          0.00000000	          0.00000000	         -0.00000000	          0.00000000	          0.00000000	          0.00000000	          0.00000000	          0.13589569	          0.00000000	          0.00000000	          0.00000000	          0.00000000	
          1.45500000	         18.56618120	        574.81578394	         39.39738913	         -0.29324925	          0.00000000	         -0.09380573	          0.00000000	          0.00000000	          0.00000000	          0.00000000	          0.00000000	          0.00000000	          0.00000000	          0.14511752	          0.00000000	          0.00000000	         -0.00000000	          0.00000000	
          1.46000000	         20.86103599	        584.03486224	         40.38326930	         -0.29236091	          0.00000000	         -0.09389564	          0.00000000	          0.00000000	          0.00000000	         -0.00000000	          0.00000000	         -0.00000000	          0.00000000	          0.13045561	          0.00000000	          0.00000000	         -0.00000000	          0.00000000	
          1.46500000	         23.36851027	        594.04085578	         41.46657956	         -0.29153215	          0.00000000	         -0.09387027	         -0.00000000	         -0.00000000	         -0.00000000	         -0.00000000	          0.00000000	         -0.00000000	          0.00000000	          0.11366094	          0.00000000	          0.00000000	         -0.00000000	          0.00000000	
          1.47000000	         25.88711224	        604.73619815	         42.60815518	         -0.29067765	          0.00000000	         -0.09395317	         -0.00000000	         -0.00000000	         -0.00000000	         -0.00000000	          0.00000000	         -0.00000000	          0.00000000	          0.11212504	          0.00000000	          0.00000000	          0.00000000	          0.00000000	
          1.47500000	         28.31965577	        615.70993360	         43.72828460	         -0.28978619	          0.00000000	         -0.09404554	         -0.00000000	         -0.00000000	         -0.00000000	          0.00000000	          0.00000000	          0.00000000	          0.00000000	          0.10588682	          0.00000000	          0.00000000	          0.00000000	          0.00000000	
          1.48000000	         30.88456087	        626.80280844	         44.75785681	         -0.28908430	          0.00000000	         -0.09399193	          0.00000000	          0.00000000	          0.00000000	          0.00000000	          0.00000000	          0.00000000	          0.00000000	          0.06425149	          0.00000000	          0.00000000	         -0.00000000	          0.00000000	
          1.48500000	         33.91170198	        637.89034937	         45.59183209	         -0.28846183	          0.00000000	         -0.09392377	          0.00000000	          0.00000000	          0.00000000	          0.00000000	          0.00000000	          0.00000000	          0.00000000	         -0.00911825	          0.00000000	          0.00000000	         -0.00000000	          0.00000000	
          1.49000000	         37.40205186	        648.66068514	         46.26644337	         -0.28792827	          0.00000000	         -0.09386779	         -0.00000000	         -0.00000000	          0.00000000	         -0.00000000	          0.00000000	         -0.00000000	          0.00000000	         -0.07973172	          0.00000000	          0.00000000	         -0.00000000	          0.00000000	
          1.49500000	         41.06937120	        658.96539496	         46.81133407	         -0.28750985	          0.00000000	         -0.09386896	         -0.00000000	         -0.00000004	         -0.00000000	         -0.00000000	          0.00000000	         -0.00000000	          0.00000000	         -0.13683558	          0.00000000	          0.00000000	          0.00000000	          0.00000000	
